<svg xmlns="http://www.w3.org/2000/svg" xmlns:xlink="http://www.w3.org/1999/xlink" viewBox="0 0 48.083 116.125" fill="#fff" fill-rule="evenodd" stroke="#000" stroke-linecap="round" stroke-linejoin="round"><use xlink:href="#A" x="1.042" y="1.042"/><symbol id="A" overflow="visible"><g stroke="none" fill-rule="nonzero"><path d="M22.917 0C16.354 0 12.51 4.1 8.333 8.333 4.452 12.267 0 16.119 0 21.958v37.333c0 5.5 2.763 9.771 6.25 13.625 4.202 4.642 9.75 8.333 16.667 8.333 12.656 0 22.917-9.833 22.917-21.958V21.958c0-5.973-4.296-11.75-8.333-15.708C33.34 2.167 29.342 0 22.917 0zm8.333 57.021c0 5.327-3.729 9.646-8.333 9.646-2.408 0-4.173-.829-6.25-2.083-2.525-1.525-2.306-4.985-2.083-7.562V24.229c0-2.406-1.258-5.875 0-7.562 1.527-2.052 5.813-2.083 8.333-2.083 2.708 0 6.813-.235 8.333 2.083 1.042 1.619 0 5.371 0 7.563v32.792z" fill="#d0cfce"/><path d="M14.596 57.023c.242-5.077 3.875-9.104 8.321-9.104 2.696 0 6.813 1.867 8.333 4.167 1.077 1.625 0 3.271 0 5.479v32.792c0 2.444 1.292 5.863 0 7.563-1.527 2.006-5.842 2.083-8.333 2.083-2.761 0-6.817-1.775-8.333-4.167-1.012-1.598 0-3.346 0-5.479v-12.1C8.333 77.362 0 57.987 0 57.987v33.117C0 102.921 10.26 112.5 22.917 112.5s22.917-9.579 22.917-21.396V54.729c0-11.817-10.26-21.396-22.917-21.396a24.57 24.57 0 0 0-9.444 1.875L14.598 57z" fill="#9b9b9a"/></g><path d="M25.483 68.431a10.44 10.44 0 0 1-2.567.319A10.42 10.42 0 0 1 12.5 58.333V22.916A10.42 10.42 0 0 1 22.916 12.5a10.42 10.42 0 0 1 10.417 10.417v6.25M25.75 78.975a21.03 21.03 0 0 1-2.833.192c-11.506 0-20.833-9.327-20.833-20.833V22.916c0-11.506 9.327-20.833 20.833-20.833S43.75 11.41 43.75 22.916V37.5m-23.417 8.654a10.44 10.44 0 0 1 2.583-.323c2.763 0 5.412 1.097 7.366 3.051s3.051 4.603 3.051 7.366v35.417a10.42 10.42 0 0 1-10.417 10.417A10.42 10.42 0 0 1 12.5 91.664v-6.25m7.812-49.833a21.05 21.05 0 0 1 2.604-.163c5.525 0 10.824 2.195 14.731 6.102s6.102 9.206 6.102 14.731v35.417c0 11.506-9.327 20.833-20.833 20.833S2.083 103.174 2.083 91.668v-12.5" fill="none" stroke-width="4.167" stroke-miterlimit="10"/></symbol></svg>